PathFileType	4	(X/Y/Z)	joints.trc
DataRate	CameraRate	NumFrames	NumMarkers	Units	OrigDataRate	OrigDataStartFrame	OrigNumFrames
30.0	30.0	11	24	m	30.0	61	100
Frame#	Time	pelvis			femur_r			tibia_r			talus_r			calcn_r			toes_r			femur_l			tibia_l			talus_l			calcn_l			toes_l			lumbar_body			thorax			head			scapula_r			humerus_r			ulna_r			radius_r			hand_r			scapula_l			humerus_l			ulna_l			radius_l			hand_l		
		X1	Y1	Z1	X2	Y2	Z2	X3	Y3	Z3	X4	Y4	Z4	X5	Y5	Z5	X6	Y6	Z6	X7	Y7	Z7	X8	Y8	Z8	X9	Y9	Z9	X10	Y10	Z10	X11	Y11	Z11	X12	Y12	Z12	X13	Y13	Z13	X14	Y14	Z14	X15	Y15	Z15	X16	Y16	Z16	X17	Y17	Z17	X18	Y18	Z18	X19	Y19	Z19	X20	Y20	Z20	X21	Y21	Z21	X22	Y22	Z22	X23	Y23	Z23	X24	Y24	Z24
61	2.000000	0.009499	-0.227776	0.103727	-0.103658	-0.283005	0.078955	-0.139052	-0.664799	0.240455	-0.260974	-0.971574	-0.035832	-0.291380	-0.981452	-0.089342	-0.242488	-1.104736	0.056319	0.051300	-0.327756	0.036001	-0.157150	-0.686062	0.060129	-0.382916	-0.851471	-0.266486	-0.379696	-0.834796	-0.326367	-0.467320	-0.987881	-0.239947	0.017395	-0.097542	-0.018134	0.100750	0.221398	-0.027507	0.155667	0.332916	-0.014587	0.034525	0.299068	0.080631	0.016719	0.270143	0.100595	-0.179764	0.307291	0.301081	-0.172315	0.311831	0.321637	-0.246000	0.206528	0.540638	0.222638	0.157138	-0.127497	0.212206	0.123829	-0.146106	0.295435	-0.057856	-0.342641	0.318171	-0.063788	-0.339104	0.408700	-0.299842	-0.354772
62	2.033333	0.009499	-0.227776	0.103727	-0.101455	-0.261022	0.048480	-0.259113	-0.598390	-0.137070	-0.423349	-0.482606	-0.517768	-0.449004	-0.438542	-0.553623	-0.456945	-0.635072	-0.564545	0.055427	-0.306538	0.014188	-0.144906	-0.656859	0.111961	-0.464071	-0.761753	-0.156626	-0.479806	-0.744926	-0.214448	-0.518673	-0.908409	-0.112743	0.042260	-0.068160	0.031836	0.162144	0.216909	0.145666	0.203498	0.326651	0.190186	0.052707	0.312298	0.178264	0.019363	0.291800	0.173766	-0.179908	0.488395	0.216443	-0.166385	0.503405	0.225956	-0.121813	0.539452	0.473330	0.307575	0.127464	0.144180	0.310905	0.098175	0.117805	0.526130	0.047397	-0.054422	0.539673	0.050503	-0.035146	0.617612	-0.136858	0.116458
63	2.066667	0.009499	-0.227776	0.103727	-0.089416	-0.302403	0.070338	-0.190330	-0.702139	0.014394	-0.349652	-0.744045	-0.383314	-0.374970	-0.703182	-0.422995	-0.381379	-0.900009	-0.418022	0.074660	-0.333000	0.071915	0.108275	-0.654615	0.332398	0.241164	-0.999331	0.112127	0.270757	-1.024095	0.063289	0.241848	-1.093172	0.244876	0.025218	-0.129400	-0.052338	0.045545	0.156961	-0.217052	0.057277	0.261151	-0.285819	-0.089912	0.220639	-0.219771	-0.108753	0.200839	-0.191394	-0.387957	0.185083	-0.235861	-0.386012	0.202196	-0.250075	-0.377512	0.451012	-0.200094	0.213297	0.117765	-0.222094	0.223978	0.080094	-0.216491	0.465643	0.032428	-0.350239	0.472530	0.053308	-0.341226	0.600392	0.081566	-0.124396
64	2.100000	0.009499	-0.227776	0.103727	-0.085448	-0.264059	0.025389	-0.166194	-0.603592	-0.201105	-0.183641	-0.252078	-0.448985	-0.191842	-0.199011	-0.417330	-0.194573	-0.236110	-0.610779	0.080238	-0.270489	0.006251	0.226361	-0.595073	-0.207550	0.272195	-0.268579	-0.483790	0.267028	-0.209771	-0.464065	0.325084	-0.283044	-0.636813	0.001995	-0.037915	0.035702	-0.064663	0.281650	-0.013881	-0.083949	0.391678	-0.068446	-0.184346	0.319276	0.068041	-0.185700	0.287801	0.091700	-0.464167	0.246826	0.122641	-0.478134	0.263009	0.116182	-0.688570	0.345981	0.231560	0.091897	0.280402	-0.087001	0.106341	0.246092	-0.100373	0.248011	0.257601	-0.341951	0.260727	0.277117	-0.337258	0.511924	0.289102	-0.306943
65	2.133333	0.009499	-0.227776	0.103727	-0.098342	-0.259112	0.041626	-0.393340	-0.521013	-0.090609	-0.561429	-0.487166	-0.485466	-0.563813	-0.439136	-0.525124	-0.659198	-0.611497	-0.524750	0.061272	-0.293986	0.007467	-0.009584	-0.616638	-0.244113	-0.163551	-0.549451	-0.640078	-0.171637	-0.514532	-0.690965	-0.161932	-0.709457	-0.668793	0.025212	-0.054491	0.043452	0.036318	0.269474	0.108048	0.034619	0.391862	0.133058	-0.111514	0.298320	0.105822	-0.127174	0.262257	0.108360	-0.387575	0.372682	0.121696	-0.382013	0.393080	0.128883	-0.384006	0.483823	0.366036	0.204631	0.278329	0.102042	0.224575	0.248415	0.085550	0.477208	0.369660	0.091738	0.472885	0.380039	0.112672	0.570820	0.305740	0.334146
66	2.166667	0.009499	-0.227776	0.103727	-0.109645	-0.274814	0.095960	-0.155457	-0.634531	0.299937	-0.080688	-0.755095	-0.106492	-0.083343	-0.746739	-0.168206	-0.099655	-0.909337	-0.058196	0.038040	-0.346175	0.065034	0.013249	-0.722856	0.237993	-0.052939	-0.801807	-0.179612	-0.041029	-0.763454	-0.227166	-0.027218	-0.958685	-0.210560	0.013059	-0.135563	-0.056201	0.041748	0.146353	-0.226725	0.053106	0.239055	-0.309375	-0.079447	0.224612	-0.192290	-0.089521	0.208246	-0.157897	-0.338325	0.298192	-0.056969	-0.339252	0.314752	-0.071921	-0.243619	0.548760	-0.047954	0.199476	0.097597	-0.272668	0.210846	0.059773	-0.270508	0.474369	-0.025907	-0.312661	0.479616	-0.005863	-0.301028	0.511269	0.024967	-0.051609
67	2.200000	0.009499	-0.227776	0.103727	-0.055615	-0.332862	0.069298	-0.010319	-0.656662	0.326600	0.200139	-1.028898	0.277018	0.220346	-1.066856	0.231893	0.163796	-1.102996	0.417102	0.108576	-0.305219	0.081002	-0.001573	-0.703787	0.118802	0.242997	-0.744601	-0.232663	0.284450	-0.704186	-0.255520	0.268828	-0.898787	-0.277149	-0.007088	-0.131510	-0.044165	-0.048657	0.189889	-0.100102	-0.052917	0.314641	-0.107001	-0.180377	0.254944	-0.071045	-0.201522	0.226445	-0.053929	-0.483250	0.243055	-0.077033	-0.493035	0.249916	-0.058169	-0.676314	0.128665	0.069057	0.116470	0.148353	-0.126646	0.124123	0.111393	-0.138479	0.393814	0.045881	-0.177690	0.405657	0.063105	-0.166388	0.580504	0.034196	0.014596
68	2.233333	0.009499	-0.227776	0.103727	-0.051099	-0.329750	0.054763	0.189162	-0.669328	0.046831	-0.019581	-0.802821	-0.305187	-0.075418	-0.789991	-0.329745	0.038376	-0.950430	-0.340541	0.092783	-0.257130	0.011357	0.070657	-0.643695	-0.138628	-0.016187	-0.619598	-0.559205	-0.013957	-0.584248	-0.610388	0.001423	-0.778636	-0.586757	-0.085754	-0.093341	0.024054	-0.211717	0.201880	0.098700	-0.248321	0.314987	0.138822	-0.359166	0.202636	0.126204	-0.367209	0.164072	0.125619	-0.629622	0.084928	0.054514	-0.638551	0.095990	0.071735	-0.677788	0.012211	0.308212	-0.044252	0.234018	0.079233	-0.021813	0.212723	0.054583	0.238855	0.305796	0.098766	0.231471	0.311041	0.120734	0.257825	0.160904	0.323037
69	2.266667	0.009383	-0.219926	0.097016	-0.072240	-0.273762	0.019513	-0.183331	-0.665446	-0.058524	-0.083594	-0.944664	-0.365568	-0.062141	-0.932256	-0.422034	-0.146802	-1.092106	-0.347036	0.089311	-0.285556	0.028297	0.166846	-0.691994	0.066561	0.267085	-0.829842	-0.325240	0.284234	-0.804137	-0.378488	0.287194	-0.989498	-0.318726	0.007754	-0.062763	0.034899	-0.022402	0.247567	0.116606	-0.048862	0.367151	0.133588	-0.160892	0.286383	0.116763	-0.178124	0.253014	0.122611	-0.431231	0.162956	0.047740	-0.438214	0.182627	0.041386	-0.559677	0.358537	0.174869	0.138833	0.253133	0.103673	0.155705	0.222767	0.088259	0.409967	0.120919	0.049406	0.420199	0.140479	0.055698	0.547820	0.184675	0.267559
70	2.300000	0.009499	-0.227776	0.103727	-0.095710	-0.258300	0.036886	-0.179720	-0.665763	0.041045	-0.282242	-0.645405	-0.376551	-0.303611	-0.614231	-0.426118	-0.330155	-0.800425	-0.367521	0.056124	-0.327595	0.038978	0.058503	-0.739769	0.089218	0.243624	-0.751114	-0.298866	0.273430	-0.710582	-0.335512	0.253000	-0.905476	-0.348935	0.081971	-0.093951	0.011781	0.271856	0.176827	0.024882	0.346639	0.277268	0.015910	0.193467	0.301766	0.051596	0.159176	0.287594	0.064845	0.054744	0.523481	0.181600	0.073298	0.530800	0.191642	0.135074	0.502475	0.436307	0.390570	0.053604	0.006049	0.377823	0.018938	-0.008107	0.636325	-0.073123	-0.065238	0.646746	-0.053829	-0.056085	0.771396	-0.048792	0.164369
71	2.333333	0.009326	-0.228070	0.105525	-0.063313	-0.279329	0.013936	-0.094497	-0.591118	-0.255020	0.113439	-0.517815	-0.620998	0.134624	-0.470371	-0.654845	0.062208	-0.645542	-0.704849	0.101864	-0.256295	0.023091	0.336869	-0.536666	-0.167602	0.499561	-0.394312	-0.536102	0.512733	-0.342498	-0.567685	0.579290	-0.525806	-0.587013	-0.020025	-0.049258	0.064777	-0.128103	0.245255	0.165295	-0.174000	0.356455	0.191972	-0.273896	0.222988	0.146847	-0.280525	0.184816	0.144156	-0.433448	-0.002507	0.003822	-0.454310	0.001697	0.010593	-0.599037	-0.128744	0.169989	0.024621	0.305641	0.204684	0.056748	0.288671	0.190556	0.267881	0.465615	0.212790	0.261020	0.477968	0.231909	0.383714	0.494208	0.450836
